<?xml version="1.0" encoding="UTF-8" standalone="no"?>
<svg xmlns:rdf="http://www.w3.org/1999/02/22-rdf-syntax-ns#" xmlns="http://www.w3.org/2000/svg" height="813.69pt" width="1280pt" version="1.1" xmlns:cc="http://creativecommons.org/ns#" xmlns:dc="http://purl.org/dc/elements/1.1/" viewBox="0 0 1280 813.69196">
<defs>
<clipPath id="a" clipPathUnits="userSpaceOnUse">
<rect ry="0" height="92.226" width="145.08" y="-.17736" x="-.17736" fill="#1d1816"/>
</clipPath>
</defs>
<g transform="matrix(8.8228 0 0 8.8228 1.5648 1.5648)" clip-path="url(#a)">
<path fill="#21de2d" d="m-1 0c-0.2237 3.9389-0.0604 10.148 2.3457 3.5547 1.2211-2.2694 3.9683-2.8459 5.9609-4.1621-2.3033 0.0628-7.7064-1.6642-8.3066 0.6074z"/>
<path fill="#0ff147" d="m3.7715-0.92969c-4.1795 1.3678-5.8718 6.0686-4.7715 10.16 2.4969-4.3595 6.1225-7.9543 10.617-10.23-1.9322 0.08781-3.9378-0.1416-5.8455 0.07001z"/>
<path fill="#03fc6c" d="m5.627-0.8457c-4.4911 2.703-8.3253 7.1727-6.627 12.834 3.3326-4.7976 7.2207-9.1936 11.668-12.988-1.6338 0.16518-3.491-0.2825-5.041 0.1543z"/>
<path fill="#03fc92" d="m7.4238-0.73633c-4.2576 4.2816-10.301 8.6501-8.4238 15.531 4.2751-5.8014 9.0102-11.314 14.688-15.795-2.006 0.238-4.4499-0.4392-6.2642 0.26367z"/>
<path fill="#0ef1b7" d="m10.33-0.75977c-4.2572 3.6983-8.3727 7.9163-11.33 12.619-1.0561 7.583 1.0473 5.046 3.9883 0.602 3.7633-4.8032 7.9587-9.1107 12.237-13.461-1.5473 0.23975-3.5103-0.41548-4.8945 0.24023z"/>
<path fill="#23dcd5" d="m12.135-0.69922c-4.6295 4.8853-9.667 9.7698-13.135 15.478-1.3742 9.087 1.9849 3.458 5.0713-0.814 4.2158-5.5173 9.0187-10.588 14.415-14.965-2.0182 0.26491-4.5696-0.49287-6.3516 0.30078z"/>
<path fill="#3fc0ec" d="m15.137-0.75781c-6.2056 5.3381-11.751 11.692-16.137 18.488-1.2395 8.734 1.8563 3.907 5.0104-0.759 4.8038-6.534 10.188-12.717 16.295-17.971-1.6386 0.23845-3.6967-0.41967-5.168 0.24219z"/>
<path fill="#629dfb" d="m17.047-0.74023c-6.926 6.2992-12.995 13.732-18.047 21.49-1.2649 9.099 2.0022 3.669 5.1895-1.074 5.3412-7.283 11.376-14.335 17.948-20.676-1.6021 0.25655-3.6749-0.45135-5.0898 0.25977z"/>
<path fill="#857afd" d="m19.014-0.70703c-7.43 7.4701-14.393 15.689-20.014 24.508-0.849 8.086 0.73987 7.499 4.1299 0.998 6.2427-9.625 13.541-18.5 22.403-25.799-2.0704 0.28338-4.6808-0.52063-6.5195 0.29297z"/>
<path fill="#ab54f6" d="m22.203-0.75391c-9.291 8.0937-17.086 18.021-23.203 28.613-1.4872 10.318 2.6876 2.163 5.744-2.23 6.593-9.638 13.756-19.036 22.701-26.629-1.661 0.24208-3.753-0.4277-5.242 0.24609z"/>
<path fill="#cb34e4" d="m24.17-0.74219c-10.055 9.03-17.984 20.289-25.17 31.553-1.4384 9.179 2.1012 3.414 5.0371-0.868 7.8469-11.109 15.545-22.745 26.633-30.943-2.0727 0.2676-4.619-0.48025-6.5 0.25781z"/>
<path fill="#e719c8" d="m27.219-0.77734c-11.716 9.3946-19.724 22.533-28.219 34.566-0.75217 7.7336 0.56015 8.0603 3.9717 1.2086 8.3093-13.175 17.908-25.384 29.309-35.998-1.6108 0.22565-3.5987-0.39258-5.0625 0.22266z"/>
<path fill="#f709a8" d="m29.107-0.7207c-11.774 11.346-21.955 24.513-30.107 38.602-1.3702 10.101 2.2574 2.927 5.2399-1.765 8.8481-13.598 18.749-26.642 31.223-37.116-2.0166 0.28173-4.5558-0.51192-6.3555 0.2793z"/>
<path fill="#fd0282" d="m32.158-0.75c-13.391 11.769-24.017 26.488-33.158 41.609-1.2676 10.644 1.8149 5.061 5.24-1.165 9.234-14.902 20.253-28.654 33.002-40.694-1.6054 0.24746-3.6548-0.43401-5.084 0.25z"/>
<path fill="#f9065e" d="m34.082-0.7168c-13.783 13.373-25.751 28.796-35.082 45.518-0.8747 8.708 0.93802 7.317 4.3244 0.31 10.102-17.047 22.086-33.039 37.084-46.111-2.0065 0.28216-4.5417-0.51533-6.3262 0.2832z"/>
<path fill="#e81739" d="m37.148-0.74023c-15.563 14.035-28.072 31.317-38.148 49.551-0.7333 8.132 0.67837 8.088 3.8906 0.853 10.662-19.002 23.987-36.499 40.589-50.664-2.0175 0.26605-4.5094-0.48159-6.332 0.25977z"/>
<path fill="#d02f1e" d="m40.186-0.74805c-16.998 14.988-30.756 33.583-41.186 53.588-0.6007 6.694 0.4677 10.592 3.2993 2.506 10.3-21.405 25.501-40.371 43.006-56.346-1.6173 0.24702-3.6799-0.43447-5.1191 0.25195z"/>
<path fill="#b04f0b" d="m42.094-0.72852c-17.805 16.616-33.194 36.295-43.094 58.61-0.972 9.012 1.4972 6.644 3.9707 0.06 10.959-22.43 26.532-42.561 45.416-58.941-2.012 0.24314-4.483-0.4514-6.293 0.27148z"/>
<path fill="#8a7502" d="m45.111-0.74414c-19.49 17.348-35.508 38.797-46.111 62.625-1.0079 9.299 1.6802 6.246 4.0781-0.276 11.455-23.94 27.99-45.506 48.358-62.605-2.0287 0.23127-4.4789-0.42734-6.3242 0.25586z"/>
<path fill="#659a04" d="m48.111-0.75391c-21.055 18.16-38.004 41.161-49.111 66.613-1.0444 9.619 1.7691 5.973 4.2305-0.537 12.194-25.373 28.984-49.145 51.396-66.322-2.0845 0.25648-4.6089-0.45973-6.5156 0.24609z"/>
<path fill="#43bc11" d="m51.172-0.77734c-23.194 18.464-40.173 43.779-52.172 70.617-0.7819 7.301 0.94939 9.947 3.4773 1.8 12.335-28.086 30.572-54.256 55.347-72.64-2.143 0.23234-4.6609-0.41536-6.6523 0.22266z"/>
<path fill="#23dc29" d="m54.297-0.78906c-25.081 19.376-43.303 46.573-55.297 75.639-0.8878 7.664 1.2851 9.365 3.4342 1.495 12.103-30.094 32.199-56.645 57.183-77.345-1.697 0.23633-3.7635-0.40886-5.3203 0.21094z"/>
<path fill="#0ef148" d="m56.268-0.75781c-25.383 21.509-45.706 49.317-57.268 80.569-0.759 6.1 0.8711 11.896 3.0488 3.019 11.89-32.83 33.141-62.322 60.693-83.83-2.0852 0.21995-4.5569-0.40441-6.4746 0.24219z"/>
<path fill="#03fc6b" d="m59.291-0.77734c-27.735 22.304-48.922 52.692-60.291 86.396-0.97404 8.6862 2.0654 6.9815 3.6484 0.002 12.221-34.111 34.345-64.558 63.09-86.621-2.084 0.20432-4.509-0.3742-6.447 0.22266z"/>
<path fill="#03fc91" d="m62.258-0.78125c-29.421 23.228-51.744 55.362-63.258 91.021-0.4341 7.909 6.0076 1.982 5.6149-3.007 10.82-35.422 35.045-65.569 63.99-88.233-2.0528 0.20207-4.4378-0.3696-6.3477 0.21875z"/>
<path fill="#0df2b3" d="m65.158-0.77539c-30.263 24.15-55.063 56.822-64.517 94.826 4.9858 1.299 3.9251-6.091 6.0387-9.166 12.459-34.261 35.965-64.011 64.935-85.885-2.0872 0.20604-4.5184-0.37724-6.457 0.22461z"/>
<path fill="#22ddd4" d="m68.096-0.78711c-31.013 23.978-55.382 57.146-66.588 94.902 5.9034 1.998 4.9804-5.662 7.1307-9.22 12.683-34.634 36.611-65.153 67.244-85.895-2.5271 0.22226-5.4003-0.39483-7.7871 0.21289z"/>
<path fill="#3ec1eb" d="m72.162-0.81641c-32.64 22.845-57.281 56.866-68.752 95.025 5.9727 1.97 5.0183-5.704 7.176-9.336 12.752-34.956 37.554-65.204 68.389-85.873-2.2096 0.2077-4.7126-0.35101-6.8125 0.18359z"/>
<path fill="#619efa" d="m75.229-0.82031c-32.929 22.784-58.532 56.549-69.854 95.103 5.075 1.121 4.3214-6.126 6.564-9.31 14.112-34.806 38.634-65.393 70.186-85.973-2.2405 0.20143-4.762-0.3419-6.8965 0.17969z"/>
<path fill="#8679fd" d="m78.326-0.82617c-33.614 22.668-58.896 56.889-72.039 95.135 6.043 1.872 5.276-5.812 7.576-9.42 14.019-35.165 39.683-65.172 71.25-85.889-2.2171 0.16676-4.6659-0.29041-6.7871 0.17383z"/>
<path fill="#aa55f6" d="m81.316-0.82617c-33.696 22.773-60.318 56.406-73.035 95.18 6.1301 1.9249 5.1936-5.964 7.5586-9.5625 14.109-35.709 40.875-65.795 73.342-85.792-2.583 0.15519-5.379-0.2831-7.866 0.17383z"/>
<path fill="#cb34e4" d="m85.246-0.83984c-34.69 22.094-62.389 55.84-74.955 95.209 5.1579 1.0746 4.5473-6.3168 6.9746-9.4551 15.591-35.319 41.629-66.088 74.953-85.914-2.2857 0.15141-4.7718-0.26681-6.9727 0.16016z"/>
<path fill="#e51aca" d="m88.209-0.84766c-35.453 21.894-62.304 56.439-77.016 95.239 6.143 1.794 5.531-6.033 8.065-9.645 15.645-35.854 43.063-66.521 77.15-85.746-2.6931 0.15934-5.5884-0.28158-8.1992 0.15234z"/>
<path fill="#f708a7" d="m92.268-0.85938c-36.322 21.327-64.556 55.737-79.051 95.228 6.171 1.762 5.539-6.063 8.072-9.721 15.733-35.971 44.107-66.053 78.051-85.648-2.327 0.13129-4.815-0.233-7.072 0.14062z"/>
<path fill="#fd0281" d="m95.242-0.85547c-36.198 21.651-65.577 55.326-79.98 95.164 6.2391 1.8165 5.4527-6.1556 8.0078-9.8125 15.865-36.629 45.617-66.062 80.17-85.496-2.6959 0.15184-5.5795-0.26786-8.1992 0.14453z"/>
<path fill="#f9065e" d="m99.262-0.86133c-36.802 21.376-67.854 54.547-81.959 95.15 5.29 1.039 4.75-6.58 7.361-9.758 17.209-36.605 46.814-67.089 82.866-85.488-2.7311 0.076072-5.6073-0.26964-8.2715 0.095703z"/>
<path fill="#ea153c" d="m103.27-0.88086c-38.412 20.342-69.008 54.784-85.028 95.154 6.1485 1.8065 5.7285-6.2307 8.4551-9.8398 17.404-36.92 48.316-67.113 84.838-85.346-2.7285 0.030825-5.5954-0.31627-8.2695 0.03125z"/>
<path fill="#d02f1f" d="m107.36-0.88672c-39.057 20.09-71.009 54.219-87.139 95.198 5.865 1.784 5.554-5.57 8.031-9.037 17.685-37.963 49.878-67.943 87.238-86.137-2.6844-0.027672-5.5009-0.36064-8.1367-0.023438z"/>
<path fill="#b24d0c" d="m111.42-0.89258c-39.756 19.736-72.99 53.615-89.232 95.19 5.2936 0.95692 5.1156-6.6822 7.8945-9.9316 19.082-37.344 51.29-67.551 89.275-85.162-2.6246-0.12645-5.3528-0.39716-7.9394-0.095703z"/>
<path fill="#8c7302" d="m115.42-0.90234c-40.915 19.229-74.21 53.821-92.305 95.207 5.9 1.8053 5.8707-5.5118 8.4957-9.0508 19.4-38.31 52.984-68.114 91.705-86.039-2.6132-0.14823-5.316-0.39425-7.8984-0.11719z"/>
<path fill="#679804" d="m119.4-0.9043c-41.32 19.261-76.118 53.212-94.293 95.236 5.9494 1.7897 5.8488-5.6869 8.5044-9.2516 19.342-38.549 54.132-68.11 93.382-85.13 3.595-1.4028-7.0836-0.90191-7.5913-0.85477z"/>
<path fill="#43bc10" d="m124.44-0.91602c-42.57 18.405-79.207 52.214-97.348 95.281 5.1474 0.99031 5.1613-6.1668 7.8953-9.2388 20.913-38.184 55.606-68.652 96.051-84.68 6.2608-2.0062-6.1115-1.3598-6.6011-1.3623z"/>
<path fill="#25da27" d="m129.42-0.92773c-44.232 17.456-81.079 52.371-101.44 95.283 6.009 1.686 6.171-5.853 9.054-9.388 21.379-38.864 57.56-68.841 98.886-84.514 6.1838-1.9744-6.0998-1.3749-6.4998-1.3804z"/>
<path fill="#10ef45" d="m134.32-0.93359c-45.158 16.988-83.756 51.501-104.36 95.28 6.168 1.749 6.178-6.068 9.139-9.619 21.862-39.847 60.137-69.084 102.51-84.268 5.604-2.1578-6.5894-1.287-7.2874-1.393z"/>
<path fill="#04fb69" d="m140.05-0.93945c-46.325 16.37-87.322 50.22-108.06 95.244 6.1574 1.7666 6.1669-6.1471 9.1901-9.638 22.414-40.022 61.226-69.768 104.94-83.007 1.0103-4.4221-3.4818-2.172-6.0703-2.5996z"/>
<path fill="#02fd8e" d="m144.78-0.013672c-47.64 14.577-89.554 48.896-110.78 94.268 5.221 1.094 5.468-6.203 8.393-9.247 23.101-38.543 60.647-68.431 103.8-81.452-0.55575-1.0535 1.0209-5.2327-1.4121-3.5684z"/>
<path fill="#0cf3b2" d="m144.86 1.877c-47.07 14.402-87.407 48.712-109.94 92.385 6.321 1.776 6.66-6.524 9.994-10.127 22.718-37.289 59.616-65.875 101.35-78.662-0.55-1.0661 1.05-5.2645-1.4-3.596z"/>
<path fill="#20dfd2" d="m144.93 3.7969c-46.062 14.327-85.961 47.562-108.03 90.496 5.942 1.871 6.34-5.531 9.318-8.917 22.374-36.919 58.802-65.169 100.05-77.938-0.53-1.1067 1.17-5.3412-1.34-3.6411z"/>
<path fill="#3dc2eb" d="m144.96 5.7578c-45.082 14.164-84.267 46.543-106.06 88.537 6.2526 1.8854 6.5191-6.2202 9.7578-9.7344 21.933-35.866 57.76-62.288 97.635-75.162-0.51878-1.115 1.1961-5.3524-1.332-3.6406z"/>
<path fill="#609ffa" d="m144.96 7.7305c-43.88 14.302-82.998 45.136-104.05 86.584 5.2575 0.98589 5.8638-6.2708 8.9941-9.3203 22.631-34.314 56.988-61.267 96.373-73.598-0.50593-1.1398 1.2555-5.4296-1.3145-3.666z"/>
<path fill="#857afd" d="m144.97 9.7188c-43.46 13.812-80.635 45.12-103.16 84.603 6.0288 1.831 6.7105-5.7431 9.9434-9.1289 22.187-33.652 56.027-59.561 94.497-71.806-0.49-1.147 1.31-5.4169-1.28-3.6682z"/>
<path fill="#aa55f6" d="m144.95 11.711c-42.43 13.678-79.208 43.847-101.14 82.629 6.3625 1.9238 6.8276-6.3918 10.344-9.7826 21.619-32.518 54.813-57.178 92.059-69.17-0.523-0.98804 1.3274-5.5925-1.2598-3.6758z"/>
<path fill="#c935e5" d="m144.91 13.711c-41.41 13.505-77.83 42.537-99.105 80.67 5.426 1.037 6.234-6.381 9.597-9.388 22.197-31.087 53.988-56.166 90.778-67.6-0.52617-0.98446 1.3058-5.6019-1.2715-3.6816z"/>
<path fill="#e51aca" d="m144.88 15.709c-40.988 12.964-75.593 42.451-98.174 78.672 6.4372 1.7941 7.3557-6.4804 11.107-9.9336 21.71-29.995 52.857-53.833 88.359-65.051-0.53653-0.96714 1.2385-5.5603-1.293-3.6875z"/>
<path fill="#f609a9" d="m144.87 17.719c-39.942 12.843-74.109 41.199-96.15 76.672 6.3554 1.77 7.3014-6.2918 10.994-9.707 21.468-29.299 52-51.883 86.48-63.279-0.54905-0.96136 1.1858-5.5596-1.3242-3.6855z"/>
<path fill="#fd0283" d="m144.87 19.742c-38.762 12.982-72.522 39.988-94.135 74.637 6.2988 1.7806 7.1887-6.0982 10.818-9.498 20.943-28.61 51.154-50.235 84.707-61.463-0.56563-0.94374 1.0702-5.569-1.3906-3.6758z"/>
<path fill="#f9065e" d="m144.92 21.766c-37.737 12.798-71.182 38.594-92.148 72.594 6.3599 1.6379 7.4472-6.5628 11.249-9.9732 20.608-27.359 49.749-48.326 82.319-58.945-0.57785-0.93389 1.0174-5.5709-1.4199-3.6758z"/>
<path fill="#ea143d" d="m144.99 23.783c-37 12.243-69.481 37.655-90.312 70.596 5.599 0.86 6.805-6.65 10.529-9.695 21.053-26.357 49.783-46.171 81.173-58.297-0.42003-1.008 0.86861-4.3101-1.3848-2.6035z"/>
<path fill="#d22d20" d="m144.98 24.793c-35.67 13.865-67.857 37.742-89.416 69.576 6.459 1.554 7.925-6.523 11.995-9.949 20.724-25.221 48.371-44.422 78.861-56.035-0.53036-1.1523 1.1161-5.5542-1.4394-3.5918z"/>
<path fill="#b24d0c" d="m145.03 26.781c-34.9 13.383-66.129 36.836-87.538 67.6 6.2669 1.578 7.5946-5.9419 11.418-9.3105 20.178-24.888 47.844-42.927 77.515-54.711-0.50944-1.1671 1.2032-5.5392-1.3926-3.5781z"/>
<path fill="#8e7102" d="m145.04 28.764c-33.713 13.438-64.954 35.216-85.49 65.535 6.3758 1.6999 7.6606-6.1663 11.619-9.4727 19.77-23.915 46.804-40.762 75.225-52.48-0.49013-1.2035 1.3215-5.6227-1.3535-3.582z"/>
<path fill="#689704" d="m145.01 30.758c-32.579 13.461-63.431 33.961-83.434 63.521 6.223 1.695 7.5999-5.902 11.459-9.1641 19.381-23.116 45.699-39.287 73.295-50.768-0.52329-1.0435 1.4126-5.869-1.3203-3.5898z"/>
<path fill="#45ba10" d="m144.96 32.76c-31.62 13.173-61.728 32.849-81.358 61.461 6.431 1.672 8.092-6.462 12.328-9.709 18.89-21.423 43.2-38.113 70.33-47.059-0.58668-1.2468 1.5198-6.8197-1.3047-4.6934z"/>
<path fill="#26d927" d="m144.96 35.783c-31.722 10.609-59.57 31.698-79.488 58.455 5.9589 0.91801 7.9692-6.9001 12.318-9.8553 18.957-19.908 42.085-36.587 68.463-44.906-0.53293-0.98367 1.2766-5.6349-1.293-3.6934z"/>
<path fill="#10ef45" d="m144.95 37.799c-31.3 10.067-57.771 31.523-78.675 56.449 6.5712 1.67 8.7764-6.287 13.269-9.5627 18.508-19.244 41.209-35.058 66.742-43.226-0.51941-1.1242 1.2003-5.3929-1.3379-3.6602z"/>
<path fill="#03fc69" d="m144.96 39.791c-30.355 9.8922-56.409 30.235-76.75 54.498 6.5616 1.5988 8.6006-6.2234 13.083-9.4736 18.211-18.769 40.961-32.611 65.017-42.425-0.4007-1.0279 0.94686-4.3079-1.3496-2.5996z"/>
<path fill="#02fd8f" d="m144.92 40.807c-28.559 11.694-55.256 29.248-74.686 53.492 6.6526 1.4759 9.0233-6.4618 13.713-9.7463 17.768-17.522 39.352-30.986 62.424-40.189-0.52984-1.16 1.1186-5.5759-1.4512-3.5566z"/>
<path fill="#0df2b3" d="m144.97 42.773c-27.83 11.168-53.352 28.584-72.82 51.506 6.319 1.718 8.594-5.59 12.937-8.68 17.463-17.106 38.613-30.227 61.293-39.24-0.5109-1.1792 1.2083-5.6015-1.4043-3.5859z"/>
<path fill="#21ded3" d="m144.99 44.764c-26.98 10.784-51.772 27.493-70.845 49.515 6.514 1.69 8.888-5.943 13.463-9.062 16.832-16.09 37.182-28.395 58.732-36.84-0.53889-1.0205 1.3029-5.8129-1.3535-3.6133z"/>
<path fill="#3dc2eb" d="m144.98 46.771c-26.146 10.311-50.28 26.272-68.828 47.508 6.5197 1.67 8.9804-5.9445 13.621-9.0195 16.315-15.178 35.782-26.767 56.5-34.854-0.51985-1.0406 1.4324-5.8507-1.293-3.6348z"/>
<path fill="#5fa0f9" d="m144.92 48.793c-25.29 9.925-48.699 25.17-66.824 45.519 6.6985 1.5395 9.2935-6.2335 14.16-9.3482 15.706-14.164 34.334-24.852 53.914-32.537-0.51138-1.0558 1.5302-5.8723-1.252-3.6348z"/>
<path fill="#857afd" d="m144.83 50.812c-24.35 9.597-47.131 23.945-64.748 43.461 6.535 1.578 9.175-5.891 13.946-8.891 15.232-13.437 33.142-23.63 52.052-30.921-0.51-1.058 1.53-5.897-1.25-3.649z"/>
<path fill="#aa55f6" d="m144.74 52.84c-23.529 9.1115-45.496 22.86-62.719 41.428 6.7002 1.3751 9.6261-6.172 14.672-9.2305 14.631-12.299 31.604-21.573 49.336-28.574-0.51651-1.0337 1.4192-5.81-1.2891-3.623z"/>
<path fill="#cb34e4" d="m144.68 54.852c-22.543 8.9307-43.88 21.709-60.687 39.359 6.7996 1.3759 10.036-6.1993 15.256-9.2479 14.016-11.406 29.836-20.587 46.913-26.51-0.55102-1.1333 1.0357-5.5505-1.4824-3.6016z"/>
<path fill="#e41bcc" d="m144.79 56.818c-22.173 7.7815-42.158 21.076-58.965 37.396 6.7334 1.41 9.9089-5.991 15.108-8.9561 13.736-10.786 29.395-18.784 45.277-25.89-0.43289-1.0132 0.82262-4.3113-1.4199-2.5508z"/>
<path fill="#f50aac" d="m144.77 57.83c-20.627 9.1859-40.907 20.239-56.975 36.377 6.8453 1.3712 10.255-6.0824 15.658-8.959 13.107-9.7907 27.818-17.375 42.834-23.857-0.58132-0.9845 1.0082-5.8369-1.5176-3.5605z"/>
<path fill="#fd0286" d="m144.86 59.834c-19.948 8.601-39.288 19.348-55.184 34.336 6.9957 1.4565 10.699-6.1188 16.288-8.8808 12.487-8.9248 26.094-16.015 40.245-21.861-0.53267-1.0452 1.3858-5.9439-1.3496-3.5938z"/>
<path fill="#fa0562" d="m144.83 61.84c-19.266 7.9497-37.588 18.496-53.275 32.297 4.7617 1.1807 8.0937-1.1107 11.172-4.4043 12.835-10.609 27.99-17.95 43.387-24.316-0.44976-1.2482 1.5113-5.7308-1.2832-3.5762z"/>
<path fill="#eb143e" d="m144.75 63.818c-18.059 7.4205-35.849 16.553-49.969 30.293 6.7075 1.4765 10.298-5.6059 15.701-8.2695 11.014-7.6148 23.078-13.592 35.6-18.471-0.47606-1.2161 1.3864-5.6547-1.332-3.5527z"/>
<path fill="#d22d20" d="m144.73 65.762c-17.403 6.7726-34.017 15.953-48.082 28.328 7.122 1.456 11.397-5.8561 17.228-8.5578 10.089-6.6394 20.887-12.321 32.32-16.161-0.54578-1.1389 1.0651-5.5599-1.4668-3.6094z"/>
<path fill="#b24d0c" d="m144.84 67.727c-16.98 5.7787-32.255 15.56-46.455 26.354 7.0621 1.8601 11.318-4.4991 16.867-7.5728 9.6238-6.3916 20.027-11.683 31.041-15.113-0.59333-0.92458 0.96314-5.5728-1.4531-3.668z"/>
<path fill="#8e7102" d="m144.95 69.729c-15.988 5.0629-30.456 14.018-43.539 24.371 7.2674 1.4188 11.662-5.9584 17.879-8.4468 8.6696-5.1419 17.733-9.3449 27.002-13.332-0.39825-1.0244 0.94818-4.2824-1.3418-2.5918z"/>
<path fill="#699604" d="m144.88 70.752c-14.608 6.2402-28.957 13.452-41.494 23.309 4.8563 1.3701 8.2281-1.0786 11.65-3.9922 9.6197-6.6888 20.544-11.125 31.256-15.721-0.55587-1.0175 1.2238-5.8691-1.4121-3.5957z"/>
<path fill="#46b90f" d="m144.9 72.77c-13.469 5.6926-27.252 11.534-38.314 21.357 6.9913 1.4367 11.374-5.4712 17.367-7.8516 7.0269-3.9918 14.56-7.3497 22.301-9.877-0.49189-1.2229 1.3659-5.7555-1.3535-3.6289z"/>
<path fill="#29d624" d="m144.94 74.734c-13.247 4.3419-25.559 11.194-36.764 19.438 4.8408 1.0773 8.4494-1.1685 12.092-3.9609 8.2768-5.0813 17.498-8.3169 26.012-12.949-0.38694-1.0555 0.99456-4.2715-1.3398-2.5273z"/>
<path fill="#11ee43" d="m144.8 75.773c-11.225 5.9193-23.664 9.9618-33.432 18.379 7.3179 1.7737 11.741-5.1969 18.131-7.3379 5.3262-3.0245 12.41-4.5987 16.775-8.1699-0.5409-1.1547 1.2605-5.4044-1.4746-2.8711z"/>
<path fill="#04fb67" d="m144.87 77.74c-10.53 4.7509-21.717 8.8067-30.629 16.449 7.3524 1.5226 12.13-4.9749 18.594-7.1602 4.2081-2.407 10.125-3.4604 13.42-6.3555-0.52184-1.1092 1.3344-5.1363-1.3848-2.9336z"/>
<path fill="#02fd8d" d="m144.87 79.736c-9.6726 3.9029-19.471 7.9006-27.793 14.334 5.0208 1.1 8.7844-1.3172 12.709-3.9983 5.1889-2.85 10.786-4.8495 16.397-6.6872-0.5303-1.0401 1.4137-5.8998-1.3125-3.6484z"/>
<path fill="#0bf4af" d="m144.88 81.713c-8.759 2.7763-17.362 6.4545-24.582 12.248 4.2473 0.83337 7.4792-0.31499 10.699-2.8438 4.7688-2.9081 11.374-3.8004 15.182-7.4668-0.33414-1.1793 1.034-3.4516-1.2988-1.9375z"/>
<path fill="#1ee1cf" d="m144.7 82.752c-7.0176 3.7742-15.269 5.4811-21.117 11.238 7.1431 1.6132 12.344-4.4727 18.851-6.2068 3.7725 0.85214 5.718-7.0805 2.2664-5.0314z"/>
<path fill="#3ac5e9" d="m144.79 84.637c-6.5403 2.6408-13.065 5.4364-18.934 9.4023 7.5829 1.4656 13.207-4.3004 20.332-5.9023-0.50806-1.1708 1.2283-5.5448-1.3984-3.5z"/>
<path fill="#5ba4f8" d="m144.83 86.5c-5.5464 1.9336-11.104 4.0379-15.893 7.5312 5.5476 1.0091 10.392-0.7717 14.934-3.8461 2.4059 0.38162 3.7941-5.5427 0.95868-3.6851z"/>
<path fill="#817efd" d="m144.71 87.477c-4.0738 2.1525-8.1306 4.3336-12.172 6.5469 4.2863 0.15978 8.5138 0.96153 11.643-2.4219 2.5843 0.27142 3.163-6.9857 0.5293-4.125z"/>
<path fill="#a858f7" d="m144.75 89.254c-2.6591 0.72203-4.6584 2.7626-6.5371 4.6543 3.4213 1.3236 8.9625-0.58603 7.793-5.0352l-0.95697 0.29021-0.29889 0.09064z"/>
</g>
</svg>
